<?xml version="1.0" encoding="utf-8"?>
<!-- Generator: Adobe Illustrator 22.0.1, SVG Export Plug-In . SVG Version: 6.00 Build 0)  -->
<svg version="1.1" xmlns="http://www.w3.org/2000/svg" xmlns:xlink="http://www.w3.org/1999/xlink" x="0px" y="0px"
	 viewBox="0 0 40 40" style="enable-background:new 0 0 40 40;" xml:space="preserve">
<style type="text/css">
	.st0{display:none;}
	.st1{fill:none;stroke:#000000;stroke-linecap:round;stroke-miterlimit:10;}
	.st2{fill:none;stroke:#362723;stroke-linecap:round;stroke-miterlimit:10;}
	.st3{fill:none;}
	.st4{fill:none;stroke:#000000;stroke-miterlimit:10;}
	.st5{fill:none;stroke:#000000;stroke-width:0.5;stroke-miterlimit:10;}
	.st6{stroke:#000000;stroke-width:0.5;stroke-miterlimit:10;}
	.st7{fill:none;stroke:#362723;stroke-miterlimit:10;}
	.st8{stroke:#362723;stroke-miterlimit:10;}
	.st9{fill:#362723;}
	.st10{fill:none;stroke:#000000;stroke-linecap:round;stroke-linejoin:round;stroke-miterlimit:10;}
	.st11{fill:none;stroke:#362723;stroke-linecap:round;stroke-linejoin:round;stroke-miterlimit:10;}
	.st12{fill:none;stroke:#FFFFFF;stroke-width:0.5;stroke-linecap:round;stroke-miterlimit:10;}
	.st13{fill:none;stroke:#F6B37F;stroke-linecap:round;stroke-miterlimit:10;}
	.st14{fill:none;stroke:#F6B37F;stroke-miterlimit:10;}
	.st15{fill:#F6B37F;stroke:#F6B37F;stroke-miterlimit:10;}
	.st16{fill:#F6B37F;}
	.st17{fill:none;stroke:#F6B37F;stroke-linecap:round;stroke-linejoin:round;stroke-miterlimit:10;}
	.st18{fill:none;stroke:#F6B37F;stroke-width:0.9782;stroke-linecap:round;stroke-miterlimit:10;}
	.st19{fill:none;stroke:#F6B37F;stroke-width:0.9782;stroke-linecap:round;stroke-linejoin:round;stroke-miterlimit:10;}
	.st20{fill:none;stroke:#362723;stroke-width:1.9286;stroke-miterlimit:10;}
	.st21{fill:none;stroke:#362723;stroke-width:1.1859;stroke-miterlimit:10;}
	.st22{fill:none;stroke:#F6B37F;stroke-width:1.1859;stroke-miterlimit:10;}
</style>
<g id="Layer_1" class="st0">
</g>
<g id="Layer_2">
	<g>
		<g>
			<path class="st2" d="M7.1,29.53c-3.08,0-5.58-0.56-5.58-1.26v4.06c0,0.69,2.5,1.26,5.58,1.26s5.58-0.56,5.58-1.26v-4.06
				C12.68,28.96,10.18,29.53,7.1,29.53z"/>
			<ellipse class="st2" cx="7.1" cy="28.27" rx="5.58" ry="1.26"/>
			<rect x="15.19" y="9.59" class="st2" width="9.49" height="23.84"/>
			<rect x="17.65" y="5.21" class="st2" width="4.58" height="4.38"/>
			<rect x="18.7" y="1.6" class="st2" width="2.49" height="3.61"/>
			<polygon class="st2" points="15.19,17.34 15.19,25.69 19.94,29.86 24.69,25.69 24.69,17.34 19.94,13.17 			"/>
			<polyline class="st2" points="17.53,1.6 26.01,1.6 26.95,2.89 			"/>
			<rect x="29.13" y="30.21" class="st2" width="7.22" height="3.38"/>
			<polygon class="st2" points="27.32,14.15 38.15,14.15 36.34,30.21 29.13,30.21 			"/>
			<rect x="1.52" y="35.83" class="st2" width="36.95" height="2.84"/>
		</g>
		<rect class="st3" width="40" height="40"/>
	</g>
</g>
<g id="가이드" class="st0">
</g>
</svg>
