<?xml version="1.0" encoding="utf-8"?>
<!-- Generator: Adobe Illustrator 23.0.3, SVG Export Plug-In . SVG Version: 6.00 Build 0)  -->
<svg version="1.1" xmlns="http://www.w3.org/2000/svg" xmlns:xlink="http://www.w3.org/1999/xlink" x="0px" y="0px"
	 viewBox="0 0 40 40" style="enable-background:new 0 0 40 40;" xml:space="preserve">
<style type="text/css">
	.st0{display:none;}
	.st1{fill:none;stroke:#000000;stroke-linecap:round;stroke-miterlimit:10;}
	.st2{fill:none;stroke:#362723;stroke-linecap:round;stroke-miterlimit:10;}
	.st3{fill:none;}
	.st4{fill:none;stroke:#000000;stroke-miterlimit:10;}
	.st5{fill:none;stroke:#000000;stroke-width:0.5;stroke-miterlimit:10;}
	.st6{stroke:#000000;stroke-width:0.5;stroke-miterlimit:10;}
	.st7{fill:none;stroke:#362723;stroke-miterlimit:10;}
	.st8{stroke:#362723;stroke-miterlimit:10;}
	.st9{fill:#362723;}
	.st10{fill:none;stroke:#000000;stroke-linecap:round;stroke-linejoin:round;stroke-miterlimit:10;}
	.st11{fill:none;stroke:#362723;stroke-linecap:round;stroke-linejoin:round;stroke-miterlimit:10;}
	.st12{fill:none;stroke:#FFFFFF;stroke-width:0.5;stroke-linecap:round;stroke-miterlimit:10;}
	.st13{fill:none;stroke:#000000;stroke-width:0.9782;stroke-linecap:round;stroke-miterlimit:10;}
	.st14{fill:none;stroke:#000000;stroke-width:0.9782;stroke-linecap:round;stroke-linejoin:round;stroke-miterlimit:10;}
	.st15{fill:none;stroke:#F6B37F;stroke-linecap:round;stroke-miterlimit:10;}
	.st16{fill:none;stroke:#F6B37F;stroke-miterlimit:10;}
	.st17{fill:#F6B37F;stroke:#F6B37F;stroke-miterlimit:10;}
	.st18{fill:#F6B37F;}
	.st19{fill:none;stroke:#F6B37F;stroke-linecap:round;stroke-linejoin:round;stroke-miterlimit:10;}
	.st20{fill:none;stroke:#F6B37F;stroke-width:0.9782;stroke-linecap:round;stroke-miterlimit:10;}
	.st21{fill:none;stroke:#F6B37F;stroke-width:0.9782;stroke-linecap:round;stroke-linejoin:round;stroke-miterlimit:10;}
	.st22{fill:none;stroke:#362723;stroke-width:1.9286;stroke-miterlimit:10;}
	.st23{fill:none;stroke:#362723;stroke-width:1.1859;stroke-miterlimit:10;}
	.st24{fill:none;stroke:#F6B37F;stroke-width:1.1859;stroke-miterlimit:10;}
</style>
<g id="Layer_1" class="st0">
</g>
<g id="Layer_2">
	<g>
		<g>
			<path class="st16" d="M16.37,0.75H9.38c-1.6,0-2.94,1.1-3.33,2.58H19.7C19.31,1.86,17.97,0.75,16.37,0.75z"/>
			<path class="st16" d="M19.7,3.34h-4.28c0.09,0.14,0.15,0.29,0.15,0.45c0,0.8-1.21,1.45-2.7,1.45c-1.49,0-2.7-0.65-2.7-1.45
				c0-0.16,0.06-0.31,0.15-0.45H6.05C5.98,3.62,5.93,3.9,5.93,4.21v3.56h13.9V4.21C19.83,3.9,19.77,3.62,19.7,3.34z"/>
			<path class="st16" d="M12.88,5.24c1.49,0,2.7-0.65,2.7-1.45c0-0.16-0.06-0.31-0.15-0.45h-5.1c-0.09,0.14-0.15,0.29-0.15,0.45
				C10.18,4.59,11.39,5.24,12.88,5.24z"/>
			<path class="st16" d="M30.18,39.21h-6.17c-1.41,0-2.59-0.97-2.94-2.28h12.04C32.77,38.23,31.59,39.21,30.18,39.21z"/>
			<path class="st16" d="M33.11,36.93h-3.77c0.08-0.13,0.13-0.26,0.13-0.4c0-0.71-1.07-1.28-2.38-1.28c-1.31,0-2.38,0.57-2.38,1.28
				c0,0.14,0.05,0.27,0.13,0.4h-3.77c-0.06-0.25-0.11-0.5-0.11-0.77v-3.14h12.26v3.14C33.22,36.43,33.18,36.68,33.11,36.93z"/>
			<path class="st16" d="M27.09,35.25c1.31,0,2.38,0.57,2.38,1.28c0,0.14-0.05,0.27-0.13,0.4h-4.5c-0.08-0.13-0.13-0.26-0.13-0.4
				C24.71,35.82,25.78,35.25,27.09,35.25z"/>
			<path class="st16" d="M18.01,39.25H6.99c-0.78,0-1.41-0.65-1.41-1.44L3.99,12.1c0-2.38-0.4-4.33,1.93-4.33h13.9
				c2.33,0,1.93,1.95,1.93,4.33l-2.34,25.7C19.42,38.6,18.78,39.25,18.01,39.25z"/>
			<circle class="st16" cx="12.48" cy="21.34" r="4.38"/>
			<polyline class="st15" points="23.01,7.16 34.98,7.16 33.29,33.02 			"/>
			<line class="st15" x1="23.95" y1="10.98" x2="34.5" y2="10.98"/>
		</g>
		<rect x="-0.53" y="0" class="st3" width="40" height="40"/>
	</g>
</g>
<g id="가이드" class="st0">
</g>
</svg>
