<?xml version="1.0" encoding="utf-8"?>
<!-- Generator: Adobe Illustrator 23.0.3, SVG Export Plug-In . SVG Version: 6.00 Build 0)  -->
<svg version="1.1" xmlns="http://www.w3.org/2000/svg" xmlns:xlink="http://www.w3.org/1999/xlink" x="0px" y="0px"
	 viewBox="0 0 40 40" style="enable-background:new 0 0 40 40;" xml:space="preserve">
<style type="text/css">
	.st0{display:none;}
	.st1{fill:none;stroke:#000000;stroke-linecap:round;stroke-miterlimit:10;}
	.st2{fill:none;stroke:#362723;stroke-linecap:round;stroke-miterlimit:10;}
	.st3{fill:none;}
	.st4{fill:none;stroke:#000000;stroke-miterlimit:10;}
	.st5{fill:none;stroke:#000000;stroke-width:0.5;stroke-miterlimit:10;}
	.st6{stroke:#000000;stroke-width:0.5;stroke-miterlimit:10;}
	.st7{fill:none;stroke:#362723;stroke-miterlimit:10;}
	.st8{stroke:#362723;stroke-miterlimit:10;}
	.st9{fill:#362723;}
	.st10{fill:none;stroke:#000000;stroke-linecap:round;stroke-linejoin:round;stroke-miterlimit:10;}
	.st11{fill:none;stroke:#362723;stroke-linecap:round;stroke-linejoin:round;stroke-miterlimit:10;}
	.st12{fill:none;stroke:#FFFFFF;stroke-width:0.5;stroke-linecap:round;stroke-miterlimit:10;}
	.st13{fill:none;stroke:#000000;stroke-width:0.9782;stroke-linecap:round;stroke-miterlimit:10;}
	.st14{fill:none;stroke:#000000;stroke-width:0.9782;stroke-linecap:round;stroke-linejoin:round;stroke-miterlimit:10;}
	.st15{fill:none;stroke:#F6B37F;stroke-linecap:round;stroke-miterlimit:10;}
	.st16{fill:none;stroke:#F6B37F;stroke-miterlimit:10;}
	.st17{fill:#F6B37F;stroke:#F6B37F;stroke-miterlimit:10;}
	.st18{fill:#F6B37F;}
	.st19{fill:none;stroke:#F6B37F;stroke-linecap:round;stroke-linejoin:round;stroke-miterlimit:10;}
	.st20{fill:none;stroke:#F6B37F;stroke-width:0.9782;stroke-linecap:round;stroke-miterlimit:10;}
	.st21{fill:none;stroke:#F6B37F;stroke-width:0.9782;stroke-linecap:round;stroke-linejoin:round;stroke-miterlimit:10;}
	.st22{fill:none;stroke:#362723;stroke-width:1.9286;stroke-miterlimit:10;}
	.st23{fill:none;stroke:#362723;stroke-width:1.1859;stroke-miterlimit:10;}
	.st24{fill:none;stroke:#F6B37F;stroke-width:1.1859;stroke-miterlimit:10;}
</style>
<g id="Layer_1" class="st0">
</g>
<g id="Layer_2">
	<g>
		<g>
			<path class="st15" d="M10.52,24.22c0,0-6.53-4.7-6.24-5.31c0.12-0.24,1.32-1.38,2.73-2.67c1.01-0.13,2.36-0.39,2.86-0.69
				c0.51-0.29,0.9-0.53,1.23-0.8c0.51,0.76,1.21,1.23,1.99,1.25l0.59,0.01L10.52,24.22z"/>
			<path class="st15" d="M16.44,24.53l-2.09-8.49l0.38,0c0.78,0.02,1.48-0.43,2-1.17c0.31,0.28,0.71,0.53,1.22,0.85
				c0.38,0.23,1.24,0.47,2.08,0.64c1.37,1.84,2.66,3.64,2.74,3.93C22.93,20.94,16.44,24.53,16.44,24.53z"/>
			<polygon class="st15" points="30.81,34.23 36.28,28.02 36.28,21.57 25.14,34.23 			"/>
			<path class="st15" d="M32.75,34.23c1.94,0,3.53-1.59,3.53-3.53v-2.68l-5.47,6.21H32.75z"/>
			<path class="st15" d="M36.28,9.3v12.27L25.14,34.22H6.2c-1.94,0-3.53-1.58-3.53-3.52V9.3c0-1.95,1.59-3.53,3.53-3.53h26.55
				C34.69,5.77,36.28,7.35,36.28,9.3z"/>
			<path class="st15" d="M21.58,16.62c-0.39-0.03-0.96-0.13-1.55-0.26c-0.84-0.17-1.69-0.41-2.08-0.64
				c-0.52-0.32-0.91-0.57-1.22-0.85c0.36-0.5,0.63-1.12,0.78-1.84c0.08-0.38,0.12-0.77,0.13-1.18c0-0.27-0.02-0.54-0.05-0.8
				c-0.02-0.22-0.06-0.45-0.12-0.65c-0.03-0.2-0.09-0.37-0.15-0.54c-0.01-0.04-0.03-0.09-0.06-0.14c-0.06-0.17-0.13-0.33-0.21-0.48
				c-0.08-0.18-0.18-0.33-0.29-0.49c0.39-0.25,0.94-0.53,1.72-0.93c0.62-0.31,2.39-0.64,3.2-0.69c1.03-0.07,1.93,0.71,2.51,1.88
				c0.41,0.83,0.66,1.84,0.65,2.92C24.79,14.55,23.34,16.79,21.58,16.62z"/>
			<path class="st15" d="M11.1,14.75c-0.33,0.27-0.72,0.5-1.23,0.8c-0.51,0.29-1.86,0.56-2.86,0.69c-0.3,0.04-0.57,0.07-0.78,0.08
				c-0.79,0.05-1.5-0.4-2.05-1.12c-0.69-0.9-1.13-2.23-1.12-3.67c0.01-1.16,0.32-2.23,0.79-3.06c0.6-1.05,1.47-1.72,2.45-1.63
				c0.41,0.05,1.09,0.17,1.73,0.33C8.61,7.32,9.17,7.5,9.47,7.66c0.78,0.43,1.31,0.73,1.71,0.99c-0.56,0.76-0.92,1.85-0.93,3.06
				c0,0.25,0.02,0.5,0.05,0.74c0,0.04,0,0.08,0.02,0.12c0.02,0.18,0.05,0.36,0.11,0.54c-0.01,0.01,0,0.02,0.01,0.04l-0.01,0.01
				c0,0.02,0.01,0.05,0.02,0.09c0.04,0.14,0.08,0.29,0.13,0.42c0.05,0.13,0.1,0.26,0.15,0.39C10.83,14.32,10.96,14.54,11.1,14.75z"
				/>
			<path class="st15" d="M16.72,14.86c-0.52,0.74-1.23,1.19-2,1.17l-0.38,0l-0.66-0.02L13.09,16c-0.78-0.02-1.48-0.49-1.99-1.25
				c-0.14-0.21-0.27-0.44-0.38-0.69c-0.05-0.13-0.1-0.26-0.15-0.39c-0.05-0.13-0.09-0.28-0.13-0.42c-0.02-0.04-0.02-0.06-0.02-0.09
				l0.01-0.01c-0.01-0.02-0.02-0.04-0.01-0.04c-0.05-0.18-0.08-0.36-0.11-0.54c-0.01-0.04-0.01-0.08-0.02-0.12
				c-0.03-0.24-0.05-0.49-0.05-0.74c0.01-1.21,0.37-2.29,0.93-3.06c0.52-0.71,1.21-1.15,1.97-1.14l1.64,0.04
				c0.77,0.01,1.45,0.48,1.96,1.22c0.11,0.15,0.21,0.31,0.29,0.49c0.08,0.15,0.15,0.3,0.21,0.48c0.03,0.04,0.05,0.09,0.06,0.14
				c0.06,0.17,0.11,0.36,0.15,0.54c0.05,0.21,0.08,0.43,0.12,0.65c0.03,0.26,0.05,0.52,0.05,0.8c-0.01,0.41-0.05,0.8-0.13,1.18
				C17.35,13.74,17.08,14.37,16.72,14.86z"/>
		</g>
		<rect x="-0.53" y="0" class="st3" width="40" height="40"/>
	</g>
</g>
<g id="가이드" class="st0">
</g>
</svg>
