<?xml version="1.0" encoding="utf-8"?>
<!-- Generator: Adobe Illustrator 23.0.3, SVG Export Plug-In . SVG Version: 6.00 Build 0)  -->
<svg version="1.1" xmlns="http://www.w3.org/2000/svg" xmlns:xlink="http://www.w3.org/1999/xlink" x="0px" y="0px"
	 viewBox="0 0 40 40" style="enable-background:new 0 0 40 40;" xml:space="preserve">
<style type="text/css">
	.st0{display:none;}
	.st1{fill:none;stroke:#000000;stroke-linecap:round;stroke-miterlimit:10;}
	.st2{fill:none;stroke:#362723;stroke-linecap:round;stroke-miterlimit:10;}
	.st3{fill:none;}
	.st4{fill:none;stroke:#000000;stroke-miterlimit:10;}
	.st5{fill:none;stroke:#000000;stroke-width:0.5;stroke-miterlimit:10;}
	.st6{stroke:#000000;stroke-width:0.5;stroke-miterlimit:10;}
	.st7{fill:none;stroke:#362723;stroke-miterlimit:10;}
	.st8{stroke:#362723;stroke-miterlimit:10;}
	.st9{fill:#362723;}
	.st10{fill:none;stroke:#000000;stroke-linecap:round;stroke-linejoin:round;stroke-miterlimit:10;}
	.st11{fill:none;stroke:#362723;stroke-linecap:round;stroke-linejoin:round;stroke-miterlimit:10;}
	.st12{fill:none;stroke:#FFFFFF;stroke-width:0.5;stroke-linecap:round;stroke-miterlimit:10;}
	.st13{fill:none;stroke:#000000;stroke-width:0.9782;stroke-linecap:round;stroke-miterlimit:10;}
	.st14{fill:none;stroke:#000000;stroke-width:0.9782;stroke-linecap:round;stroke-linejoin:round;stroke-miterlimit:10;}
	.st15{fill:none;stroke:#F6B37F;stroke-linecap:round;stroke-miterlimit:10;}
	.st16{fill:none;stroke:#F6B37F;stroke-miterlimit:10;}
	.st17{fill:#F6B37F;stroke:#F6B37F;stroke-miterlimit:10;}
	.st18{fill:#F6B37F;}
	.st19{fill:none;stroke:#F6B37F;stroke-linecap:round;stroke-linejoin:round;stroke-miterlimit:10;}
	.st20{fill:none;stroke:#F6B37F;stroke-width:0.9782;stroke-linecap:round;stroke-miterlimit:10;}
	.st21{fill:none;stroke:#F6B37F;stroke-width:0.9782;stroke-linecap:round;stroke-linejoin:round;stroke-miterlimit:10;}
	.st22{fill:none;stroke:#362723;stroke-width:1.9286;stroke-miterlimit:10;}
	.st23{fill:none;stroke:#362723;stroke-width:1.1859;stroke-miterlimit:10;}
	.st24{fill:none;stroke:#F6B37F;stroke-width:1.1859;stroke-miterlimit:10;}
</style>
<g id="Layer_1" class="st0">
</g>
<g id="Layer_2">
	<g>
		<g>
			<path class="st15" d="M14.53,13.53c0,0-0.2-2.41,1.63-2.86"/>
			<path class="st19" d="M15.34,9.89c0,0,5.24,2.99,12.78,0.78c3.78-1.76,1.58-7.22,0.98-8.91c0,0-0.13,2.41-9.82,1.69
				s-7.35,12.09-7.35,12.29c0,0.2,0.5,1.84,1.17,3.06c0.49,0.89,0.39,1.69,0.33,2.21c-0.07,0.52,1.56,3.45,1.56,3.45l0.07,5.07
				L3.48,33.1c0,0-3.45,1.3-2.93,5.14"/>
			<path class="st15" d="M27.33,13.53c0,0,0.33,2.34-0.33,3.38c-0.65,1.04-1.24,1.43-1.04,2.41c0.2,0.98-0.59,3.77-2.02,4.81v5.33
				L35,32.9c0,0,3.12,0.85,3.45,5.33"/>
			<path class="st19" d="M23.95,8.98c0,0,3.32,0.62,3.9-1.5"/>
		</g>
		<rect x="-0.53" y="0" class="st12" width="40" height="40"/>
	</g>
</g>
<g id="가이드" class="st0">
</g>
</svg>
