<?xml version="1.0" encoding="utf-8"?>
<!-- Generator: Adobe Illustrator 23.0.3, SVG Export Plug-In . SVG Version: 6.00 Build 0)  -->
<svg version="1.1" xmlns="http://www.w3.org/2000/svg" xmlns:xlink="http://www.w3.org/1999/xlink" x="0px" y="0px"
	 viewBox="0 0 40 40" style="enable-background:new 0 0 40 40;" xml:space="preserve">
<style type="text/css">
	.st0{display:none;}
	.st1{fill:none;stroke:#000000;stroke-linecap:round;stroke-miterlimit:10;}
	.st2{fill:none;stroke:#362723;stroke-linecap:round;stroke-miterlimit:10;}
	.st3{fill:none;}
	.st4{fill:none;stroke:#000000;stroke-miterlimit:10;}
	.st5{fill:none;stroke:#000000;stroke-width:0.5;stroke-miterlimit:10;}
	.st6{stroke:#000000;stroke-width:0.5;stroke-miterlimit:10;}
	.st7{fill:none;stroke:#362723;stroke-miterlimit:10;}
	.st8{stroke:#362723;stroke-miterlimit:10;}
	.st9{fill:#362723;}
	.st10{fill:none;stroke:#000000;stroke-linecap:round;stroke-linejoin:round;stroke-miterlimit:10;}
	.st11{fill:none;stroke:#362723;stroke-linecap:round;stroke-linejoin:round;stroke-miterlimit:10;}
	.st12{fill:none;stroke:#FFFFFF;stroke-width:0.5;stroke-linecap:round;stroke-miterlimit:10;}
	.st13{fill:none;stroke:#000000;stroke-width:0.9782;stroke-linecap:round;stroke-miterlimit:10;}
	.st14{fill:none;stroke:#000000;stroke-width:0.9782;stroke-linecap:round;stroke-linejoin:round;stroke-miterlimit:10;}
	.st15{fill:none;stroke:#F6B37F;stroke-linecap:round;stroke-miterlimit:10;}
	.st16{fill:none;stroke:#F6B37F;stroke-miterlimit:10;}
	.st17{fill:#F6B37F;stroke:#F6B37F;stroke-miterlimit:10;}
	.st18{fill:#F6B37F;}
	.st19{fill:none;stroke:#F6B37F;stroke-linecap:round;stroke-linejoin:round;stroke-miterlimit:10;}
	.st20{fill:none;stroke:#F6B37F;stroke-width:0.9782;stroke-linecap:round;stroke-miterlimit:10;}
	.st21{fill:none;stroke:#F6B37F;stroke-width:0.9782;stroke-linecap:round;stroke-linejoin:round;stroke-miterlimit:10;}
	.st22{fill:none;stroke:#362723;stroke-width:1.9286;stroke-miterlimit:10;}
	.st23{fill:none;stroke:#362723;stroke-width:1.1859;stroke-miterlimit:10;}
	.st24{fill:none;stroke:#F6B37F;stroke-width:1.1859;stroke-miterlimit:10;}
</style>
<g id="Layer_1" class="st0">
</g>
<g id="Layer_2">
	<g>
		<g>
			<path class="st15" d="M30.11,15.87H23.9c-0.6,0-1.1-0.49-1.1-1.1v-2.52c0-0.6,0.49-1.1,1.1-1.1h6.21c0.6,0,1.1,0.49,1.1,1.1v2.52
				C31.21,15.38,30.72,15.87,30.11,15.87z"/>
			<path class="st15" d="M32.74,39.21H21.27c-0.78,0-1.41-0.64-1.41-1.41V22.07c0-2.72,2.23-4.95,4.95-4.95h4.39
				c2.72,0,4.95,2.23,4.95,4.95v15.72C34.15,38.57,33.52,39.21,32.74,39.21z"/>
			<line class="st15" x1="19.86" y1="24.88" x2="34.15" y2="24.88"/>
			<line class="st15" x1="19.86" y1="32.66" x2="34.15" y2="32.66"/>
			<path class="st15" d="M11.54,5.1H9.37c-0.82,0-1.49-0.67-1.49-1.49V2.28c0-0.82,0.67-1.49,1.49-1.49h2.17
				c0.82,0,1.49,0.67,1.49,1.49V3.6C13.04,4.43,12.36,5.1,11.54,5.1z"/>
			<path class="st15" d="M14.77,39.21H6.14c-0.74,0-1.35-0.61-1.35-1.35V10.83c0-0.74,0.61-1.35,1.35-1.35h8.63
				c0.74,0,1.35,0.61,1.35,1.35v27.04C16.12,38.6,15.51,39.21,14.77,39.21z"/>
			<path class="st15" d="M12.41,9.48h-3.9c-0.48,0-0.88-0.4-0.88-0.88V6.92c0-0.48,0.4-0.88,0.88-0.88h3.9
				c0.48,0,0.88,0.4,0.88,0.88V8.6C13.29,9.08,12.89,9.48,12.41,9.48z"/>
			<path class="st18" d="M13.04,2.41c0,0,2.25-0.04,2.48,0c0.23,0.04,1.22,0.63,1.39,1.05l-0.67,0.69c0,0-0.88-0.74-1.14-0.76
				s-2.06,0.02-2.06,0.02V2.41z"/>
			<line class="st15" x1="16.12" y1="13.85" x2="4.8" y2="19.29"/>
			<line class="st15" x1="16.12" y1="24.28" x2="4.8" y2="29.72"/>
		</g>
		<rect x="-0.53" y="0" class="st3" width="40" height="40"/>
	</g>
</g>
<g id="가이드" class="st0">
</g>
</svg>
