<?xml version="1.0" encoding="utf-8"?>
<!-- Generator: Adobe Illustrator 23.0.3, SVG Export Plug-In . SVG Version: 6.00 Build 0)  -->
<svg version="1.1" xmlns="http://www.w3.org/2000/svg" xmlns:xlink="http://www.w3.org/1999/xlink" x="0px" y="0px"
	 viewBox="0 0 40 40" style="enable-background:new 0 0 40 40;" xml:space="preserve">
<style type="text/css">
	.st0{display:none;}
	.st1{fill:none;stroke:#000000;stroke-linecap:round;stroke-miterlimit:10;}
	.st2{fill:none;stroke:#362723;stroke-linecap:round;stroke-miterlimit:10;}
	.st3{fill:none;}
	.st4{fill:none;stroke:#000000;stroke-miterlimit:10;}
	.st5{fill:none;stroke:#000000;stroke-width:0.5;stroke-miterlimit:10;}
	.st6{stroke:#000000;stroke-width:0.5;stroke-miterlimit:10;}
	.st7{fill:none;stroke:#362723;stroke-miterlimit:10;}
	.st8{stroke:#362723;stroke-miterlimit:10;}
	.st9{fill:#362723;}
	.st10{fill:none;stroke:#000000;stroke-linecap:round;stroke-linejoin:round;stroke-miterlimit:10;}
	.st11{fill:none;stroke:#362723;stroke-linecap:round;stroke-linejoin:round;stroke-miterlimit:10;}
	.st12{fill:none;stroke:#FFFFFF;stroke-width:0.5;stroke-linecap:round;stroke-miterlimit:10;}
	.st13{fill:none;stroke:#000000;stroke-width:0.9782;stroke-linecap:round;stroke-miterlimit:10;}
	.st14{fill:none;stroke:#000000;stroke-width:0.9782;stroke-linecap:round;stroke-linejoin:round;stroke-miterlimit:10;}
	.st15{fill:none;stroke:#F6B37F;stroke-linecap:round;stroke-miterlimit:10;}
	.st16{fill:none;stroke:#F6B37F;stroke-miterlimit:10;}
	.st17{fill:#F6B37F;stroke:#F6B37F;stroke-miterlimit:10;}
	.st18{fill:#F6B37F;}
	.st19{fill:none;stroke:#F6B37F;stroke-linecap:round;stroke-linejoin:round;stroke-miterlimit:10;}
	.st20{fill:none;stroke:#F6B37F;stroke-width:0.9782;stroke-linecap:round;stroke-miterlimit:10;}
	.st21{fill:none;stroke:#F6B37F;stroke-width:0.9782;stroke-linecap:round;stroke-linejoin:round;stroke-miterlimit:10;}
	.st22{fill:none;stroke:#362723;stroke-width:1.9286;stroke-miterlimit:10;}
	.st23{fill:none;stroke:#362723;stroke-width:1.1859;stroke-miterlimit:10;}
	.st24{fill:none;stroke:#F6B37F;stroke-width:1.1859;stroke-miterlimit:10;}
</style>
<g id="Layer_1" class="st0">
</g>
<g id="Layer_2">
	<g>
		<g>
			<g>
				
					<rect x="24.09" y="18.99" transform="matrix(-1 -4.476787e-11 4.476787e-11 -1 56.3087 57.3515)" class="st15" width="8.13" height="19.36"/>
				
					<rect x="26.19" y="15.07" transform="matrix(-1 -4.502100e-11 4.502100e-11 -1 56.3087 34.0674)" class="st15" width="3.92" height="3.92"/>
				
					<rect x="27.09" y="11.85" transform="matrix(-1 -4.478297e-11 4.478297e-11 -1 56.3087 26.9208)" class="st15" width="2.13" height="3.23"/>
				<polygon class="st15" points="32.22,25.29 32.22,32.07 28.15,35.46 24.09,32.07 24.09,25.29 28.15,21.9 				"/>
				<polyline class="st15" points="30.22,11.85 22.96,11.85 22.15,13 				"/>
			</g>
			<g>
				<path class="st15" d="M25.16,9.08c0.8-1.66,2.12-3.15,4.33-3.85"/>
				<path class="st15" d="M19.36,1c0,0-10.53,4-7.75,10.93c2.78,6.93,0.61,8.12-2.3,9.96c-2.91,1.84-3.69,7-0.62,10.21
					C11.77,35.32,7.7,39,7.7,39s8.09-0.34,9.38-3.17c1.3-2.83,0.13-10.03,4.53-11.15"/>
			</g>
		</g>
		<rect x="-0.53" class="st3" width="40" height="40"/>
	</g>
</g>
<g id="가이드" class="st0">
</g>
</svg>
