<?xml version="1.0" encoding="utf-8"?>
<!-- Generator: Adobe Illustrator 23.0.3, SVG Export Plug-In . SVG Version: 6.00 Build 0)  -->
<svg version="1.1" xmlns="http://www.w3.org/2000/svg" xmlns:xlink="http://www.w3.org/1999/xlink" x="0px" y="0px"
	 viewBox="0 0 40 40" style="enable-background:new 0 0 40 40;" xml:space="preserve">
<style type="text/css">
	.st0{display:none;}
	.st1{fill:none;stroke:#000000;stroke-linecap:round;stroke-miterlimit:10;}
	.st2{fill:none;stroke:#362723;stroke-linecap:round;stroke-miterlimit:10;}
	.st3{fill:none;}
	.st4{fill:none;stroke:#000000;stroke-miterlimit:10;}
	.st5{fill:none;stroke:#000000;stroke-width:0.5;stroke-miterlimit:10;}
	.st6{stroke:#000000;stroke-width:0.5;stroke-miterlimit:10;}
	.st7{fill:none;stroke:#362723;stroke-miterlimit:10;}
	.st8{stroke:#362723;stroke-miterlimit:10;}
	.st9{fill:#362723;}
	.st10{fill:none;stroke:#000000;stroke-linecap:round;stroke-linejoin:round;stroke-miterlimit:10;}
	.st11{fill:none;stroke:#362723;stroke-linecap:round;stroke-linejoin:round;stroke-miterlimit:10;}
	.st12{fill:none;stroke:#FFFFFF;stroke-width:0.5;stroke-linecap:round;stroke-miterlimit:10;}
	.st13{fill:none;stroke:#000000;stroke-width:0.9782;stroke-linecap:round;stroke-miterlimit:10;}
	.st14{fill:none;stroke:#000000;stroke-width:0.9782;stroke-linecap:round;stroke-linejoin:round;stroke-miterlimit:10;}
	.st15{fill:none;stroke:#F6B37F;stroke-linecap:round;stroke-miterlimit:10;}
	.st16{fill:none;stroke:#F6B37F;stroke-miterlimit:10;}
	.st17{fill:#F6B37F;stroke:#F6B37F;stroke-miterlimit:10;}
	.st18{fill:#F6B37F;}
	.st19{fill:none;stroke:#F6B37F;stroke-linecap:round;stroke-linejoin:round;stroke-miterlimit:10;}
	.st20{fill:none;stroke:#F6B37F;stroke-width:0.9782;stroke-linecap:round;stroke-miterlimit:10;}
	.st21{fill:none;stroke:#F6B37F;stroke-width:0.9782;stroke-linecap:round;stroke-linejoin:round;stroke-miterlimit:10;}
	.st22{fill:none;stroke:#362723;stroke-width:1.9286;stroke-miterlimit:10;}
	.st23{fill:none;stroke:#362723;stroke-width:1.1859;stroke-miterlimit:10;}
	.st24{fill:none;stroke:#F6B37F;stroke-width:1.1859;stroke-miterlimit:10;}
</style>
<g id="Layer_1" class="st0">
</g>
<g id="Layer_2">
	<g>
		<g>
			<path class="st2" d="M16.17,16.54c0.43-0.22,0.91-0.34,1.41-0.34h10.84c1.72,0,3.13,1.41,3.13,3.13v16.9
				c0,1.72-1.41,3.13-3.13,3.13H17.59c-1.72,0-3.13-1.41-3.13-3.13v-1.87"/>
			<path class="st2" d="M26.29,9.55V3.77c0-1.72-1.41-3.13-3.13-3.13h-0.13c-1.72,0-3.13,1.41-3.13,3.13v5.78
				c0,0.4,0.08,0.78,0.22,1.13h5.95C26.21,10.32,26.29,9.95,26.29,9.55z"/>
			<path class="st2" d="M28.48,10.68h-2.41h-5.95h-2.59c-1.52,0-2.76,1.24-2.76,2.76c0,1.52,1.24,2.76,2.76,2.76h10.94
				c1.52,0,2.76-1.24,2.76-2.76C31.24,11.92,30,10.68,28.48,10.68z"/>
			<path class="st11" d="M16.98,23.52c-0.15-0.05-0.3-0.09-0.44-0.13c-1.11-0.32-1.98-0.34-2.58-0.14c-0.21,0.49-0.54,0.8-0.95,0.89
				c0.41-0.09,0.84,0.06,1.23,0.42c0.48,0.45,0.91,1.24,1.21,2.39c0.14,0.06,0.27,0.12,0.43,0.17c2.28,0.78,4.68-0.38,4.68-0.38
				S19.26,24.3,16.98,23.52z"/>
			<path class="st11" d="M15.57,27.41c-0.04-0.16-0.08-0.31-0.12-0.46c-0.3-1.15-0.73-1.94-1.21-2.39c-0.52,0.05-0.95-0.1-1.23-0.42
				c0.29,0.33,0.38,0.78,0.28,1.31c-0.12,0.65-0.57,1.42-1.37,2.25c0.03,0.16,0.04,0.3,0.08,0.47c0.52,2.43,2.72,4.01,2.72,4.01
				S16.08,29.83,15.57,27.41z"/>
			<path class="st11" d="M13,24.14c0.29,0.33,0.71,0.47,1.23,0.42C13.84,24.2,13.42,24.05,13,24.14z"/>
			<path class="st11" d="M13,24.14c-0.13,0.42-0.46,0.72-0.95,0.89c-0.61,0.2-1.48,0.18-2.58-0.14c-0.12,0.1-0.23,0.19-0.35,0.3
				c-1.76,1.64-1.96,4.4-1.96,4.4s2.67,0.09,4.43-1.55c0.12-0.11,0.22-0.22,0.32-0.33c0.81-0.83,1.25-1.6,1.37-2.25
				C12.97,25.01,12.87,24.55,13,24.14z"/>
			<path class="st11" d="M13.28,25.45c0.1-0.53,0.01-0.98-0.28-1.31C12.87,24.55,12.97,25.01,13.28,25.45z"/>
			<path class="st11" d="M11.77,23.71c-0.48-0.45-0.91-1.24-1.21-2.39c-0.14-0.06-0.27-0.12-0.43-0.17
				c-2.28-0.78-4.68,0.38-4.68,0.38s1.3,2.44,3.57,3.22c0.15,0.05,0.3,0.09,0.44,0.13c1.11,0.32,1.98,0.34,2.58,0.14
				c0.21-0.49,0.54-0.8,0.95-0.89C12.59,24.23,12.16,24.08,11.77,23.71z"/>
			<path class="st11" d="M12.05,25.03c0.5-0.17,0.83-0.47,0.95-0.89C12.59,24.23,12.26,24.53,12.05,25.03z"/>
			<path class="st11" d="M14.42,20.25c-0.12,0.11-0.22,0.22-0.32,0.33c-0.81,0.83-1.25,1.6-1.37,2.25c0.31,0.44,0.41,0.9,0.28,1.31
				c0.13-0.42,0.46-0.72,0.95-0.89c0.61-0.2,1.48-0.18,2.58,0.14c0.12-0.1,0.23-0.19,0.35-0.3c1.76-1.64,1.96-4.4,1.96-4.4
				S16.18,18.6,14.42,20.25z"/>
			<path class="st11" d="M13.96,23.25c-0.5,0.17-0.83,0.47-0.95,0.89C13.42,24.05,13.74,23.74,13.96,23.25z"/>
			<path class="st11" d="M12.72,22.82c0.12-0.65,0.57-1.42,1.37-2.25c-0.03-0.16-0.04-0.3-0.08-0.47c-0.52-2.43-2.72-4.01-2.72-4.01
				s-1.37,2.35-0.85,4.77c0.04,0.16,0.08,0.31,0.12,0.46c0.3,1.15,0.73,1.94,1.21,2.39c0.52-0.05,0.95,0.1,1.23,0.42
				C12.72,23.81,12.62,23.36,12.72,22.82z"/>
			<path class="st11" d="M12.72,22.82c-0.1,0.53-0.01,0.98,0.28,1.31C13.13,23.72,13.03,23.27,12.72,22.82z"/>
			<path class="st11" d="M11.77,23.71c0.39,0.36,0.82,0.51,1.23,0.42C12.72,23.81,12.29,23.66,11.77,23.71z"/>
		</g>
		<rect class="st3" width="40" height="40"/>
	</g>
</g>
<g id="가이드" class="st0">
</g>
</svg>
