<?xml version="1.0" encoding="utf-8"?>
<!-- Generator: Adobe Illustrator 23.0.3, SVG Export Plug-In . SVG Version: 6.00 Build 0)  -->
<svg version="1.1" xmlns="http://www.w3.org/2000/svg" xmlns:xlink="http://www.w3.org/1999/xlink" x="0px" y="0px"
	 viewBox="0 0 40 40" style="enable-background:new 0 0 40 40;" xml:space="preserve">
<style type="text/css">
	.st0{display:none;}
	.st1{fill:none;stroke:#000000;stroke-linecap:round;stroke-miterlimit:10;}
	.st2{fill:none;stroke:#362723;stroke-linecap:round;stroke-miterlimit:10;}
	.st3{fill:none;}
	.st4{fill:none;stroke:#000000;stroke-miterlimit:10;}
	.st5{fill:none;stroke:#000000;stroke-width:0.5;stroke-miterlimit:10;}
	.st6{stroke:#000000;stroke-width:0.5;stroke-miterlimit:10;}
	.st7{fill:none;stroke:#362723;stroke-miterlimit:10;}
	.st8{stroke:#362723;stroke-miterlimit:10;}
	.st9{fill:#362723;}
	.st10{fill:none;stroke:#000000;stroke-linecap:round;stroke-linejoin:round;stroke-miterlimit:10;}
	.st11{fill:none;stroke:#362723;stroke-linecap:round;stroke-linejoin:round;stroke-miterlimit:10;}
	.st12{fill:none;stroke:#FFFFFF;stroke-width:0.5;stroke-linecap:round;stroke-miterlimit:10;}
	.st13{fill:none;stroke:#000000;stroke-width:0.9782;stroke-linecap:round;stroke-miterlimit:10;}
	.st14{fill:none;stroke:#000000;stroke-width:0.9782;stroke-linecap:round;stroke-linejoin:round;stroke-miterlimit:10;}
	.st15{fill:none;stroke:#F6B37F;stroke-linecap:round;stroke-miterlimit:10;}
	.st16{fill:none;stroke:#F6B37F;stroke-miterlimit:10;}
	.st17{fill:#F6B37F;stroke:#F6B37F;stroke-miterlimit:10;}
	.st18{fill:#F6B37F;}
	.st19{fill:none;stroke:#F6B37F;stroke-linecap:round;stroke-linejoin:round;stroke-miterlimit:10;}
	.st20{fill:none;stroke:#F6B37F;stroke-width:0.9782;stroke-linecap:round;stroke-miterlimit:10;}
	.st21{fill:none;stroke:#F6B37F;stroke-width:0.9782;stroke-linecap:round;stroke-linejoin:round;stroke-miterlimit:10;}
	.st22{fill:none;stroke:#362723;stroke-width:1.9286;stroke-miterlimit:10;}
	.st23{fill:none;stroke:#362723;stroke-width:1.1859;stroke-miterlimit:10;}
	.st24{fill:none;stroke:#F6B37F;stroke-width:1.1859;stroke-miterlimit:10;}
</style>
<g id="Layer_1" class="st0">
</g>
<g id="Layer_2">
	<g>
		<g>
			<line class="st15" x1="20.13" y1="0.97" x2="23.57" y2="2.3"/>
			<line class="st15" x1="19.16" y1="3.57" x2="22.42" y2="3.57"/>
			<line class="st15" x1="20.13" y1="5.92" x2="23.57" y2="4.78"/>
			<path class="st16" d="M30.12,8.73h-6.25c-0.4,0-0.72-0.33-0.72-0.72V7.6c0-0.4,0.33-0.72,0.72-0.72h6.25
				c0.4,0,0.72,0.33,0.72,0.72V8C30.85,8.4,30.52,8.73,30.12,8.73z"/>
			<path class="st16" d="M32.2,37.85c0,0-1.27,1.18-4.96,1.18c-1.18,0-5.39-1.18-5.39-1.18v-25.5c0-2,1.1-3.62,2.03-3.62h6.07
				c0.6,0,2.26,1.62,2.26,3.62V37.85z"/>
			<path class="st16" d="M32.2,37.85c0,0-1.27,1.18-4.96,1.18c-3.64,0-5.39-1.18-5.39-1.18"/>
			<path class="st16" d="M28.05,2.3h-2.11c-0.4,0-0.72,0.33-0.72,0.72v0.2c0.14-0.09,0.3-0.14,0.48-0.14c0.52,0,0.95,0.44,0.95,0.98
				c0,0.54-0.42,0.98-0.95,0.98c-0.18,0-0.34-0.05-0.48-0.14v0.44h3.56V3.03C28.78,2.63,28.45,2.3,28.05,2.3z"/>
			<path class="st17" d="M26.64,4.07c0-0.54-0.42-0.98-0.95-0.98c-0.18,0-0.34,0.05-0.48,0.14v1.68c0.14,0.09,0.3,0.14,0.48,0.14
				C26.22,5.05,26.64,4.61,26.64,4.07z"/>
			<g>
				<line class="st15" x1="7.38" y1="19" x2="10.92" y2="20.71"/>
				<line class="st15" x1="8.08" y1="17.53" x2="11.63" y2="19.24"/>
				<line class="st15" x1="8.79" y1="16.06" x2="12.34" y2="17.77"/>
				<line class="st15" x1="9.5" y1="14.59" x2="13.05" y2="16.3"/>
				<line class="st15" x1="10.21" y1="13.12" x2="13.76" y2="14.83"/>
				<line class="st15" x1="10.92" y1="11.65" x2="14.47" y2="13.35"/>
				<line class="st15" x1="11.63" y1="10.17" x2="15.17" y2="11.88"/>
				<line class="st15" x1="12.26" y1="8.85" x2="15.8" y2="10.56"/>
				<g>
					<path class="st15" d="M18.62,11.32l-5.58,11.96c-0.1,0.22-0.29,0.37-0.5,0.44c-0.21,0.06-0.43,0.06-0.63-0.05l-0.21-0.1
						c-0.26-0.13-0.41-0.37-0.46-0.64c-0.04-0.17-0.03-0.36,0.05-0.53l5.58-11.96c0.2-0.42,0.71-0.6,1.13-0.39l0.21,0.1
						C18.64,10.37,18.82,10.89,18.62,11.32z"/>
					<path class="st15" d="M12.54,23.72l-2.4,5.87c0,0-1.15,4.59-3.52,3.22c-2.38-1.37,0.83-4.64,0.83-4.64l3.41-4.75l0.36-0.49
						l0.02,0c0.05,0.27,0.2,0.51,0.46,0.64l0.21,0.1C12.11,23.78,12.34,23.79,12.54,23.72z"/>
				</g>
			</g>
		</g>
		<rect x="-0.53" y="0" class="st3" width="40" height="40"/>
	</g>
</g>
<g id="가이드" class="st0">
</g>
</svg>
